<?xml version="1.0" encoding="UTF-8"?>
<svg id="Layer_2" xmlns="http://www.w3.org/2000/svg" viewBox="0 0 1448.4 176.66">
  <defs>
    <style>
      .cls-1 {
        opacity: .32;
      }

      .cls-2 {
        fill: red;
        opacity: .5;
      }
    </style>
  </defs>
  <g id="Layer_1-2" data-name="Layer_1">
    <g>
      <path class="cls-2" d="M1372.35,2.54c-1.25-1.31.48-3.29,1.95-2.24,13.46,9.61,34.66,26.12,50.95,45.12,19.08,12.71,24.86,27.65,22.73,42.95,2.1,15.26-3.69,30.17-22.72,42.86-14.63,17.07-33.23,32.13-46.62,41.99-1.52,1.11-2.97,2.16-4.34,3.14-1.47,1.06-3.2-.93-1.95-2.24,2.21-2.32,4.31-4.59,6.29-6.82,6.95-7.83,12.49-15.13,16.71-21.92,16.02-25.73,13.15-44.22-3.4-57.05,16.55-12.82,19.41-31.32,3.39-57.05-5.42-8.73-13.02-18.29-22.99-28.74Z"/>
      <path class="cls-1" d="M1395.35,145.38c-5.13,1.77-10.69,3.46-16.71,5.06-1.82.48-3.68.96-5.59,1.42-87.61,21.43-265.31,24.47-601.03-14.44-.31-.04-.63-.08-.94-.11-15.3-1.78-30.92-3.64-46.88-5.59-.2.02-.39.05-.59.07-360.46,44.05-550.36,42.55-643.69,21.15-1.9-.43-3.77-.88-5.59-1.33-1.55-.38-3.08-.77-4.57-1.17-6.02-1.6-11.58-3.29-16.71-5.06-16.02-25.73-13.15-44.22,3.4-57.05,3.75,2.92,8.21,5.53,13.31,7.88,3.15,1.45,6.54,2.79,10.16,4.03,5.39,1.85,11.28,3.48,17.64,4.89,80.25,17.96,234.28,3.05,368.13-16.31,1.12-.17,2.24-.33,3.35-.49-145.19-21.13-315.19-37.27-389.12-11.9-9.49,3.26-17.4,7.2-23.47,11.9-16.55-12.82-19.41-31.32-3.39-57.05,7.9-2.73,16.82-5.26,26.86-7.56C173.3,2.32,363.36.83,724.2,44.94,1085.04.83,1275.1,2.32,1368.48,23.72c10.04,2.3,18.96,4.83,26.86,7.56,16.02,25.73,13.16,44.23-3.39,57.05-6.07-4.7-13.98-8.64-23.47-11.9-73.93-25.37-243.93-9.23-389.12,11.9,152.31,22.18,331.91,38.86,399.28,7.88,5.1-2.35,9.56-4.96,13.31-7.88,16.55,12.83,19.42,31.32,3.4,57.05Z"/>
      <path class="cls-2" d="M23.15,45.42C39.44,26.42,60.64,9.91,74.1.3c1.47-1.05,3.2.93,1.95,2.24-9.97,10.45-17.57,20.01-22.99,28.74-16.02,25.73-13.16,44.23,3.39,57.05-16.55,12.83-19.42,31.32-3.4,57.05,5.42,8.72,13.02,18.28,23,28.74,1.25,1.31-.48,3.3-1.95,2.24-13.47-9.61-34.68-26.12-50.96-45.13C4.11,118.54-1.68,103.63.42,88.37c-2.13-15.3,3.65-30.24,22.73-42.95Z"/>
    </g>
  </g>
</svg>