<?xml version="1.0" encoding="UTF-8"?>
<svg id="Layer_2" xmlns="http://www.w3.org/2000/svg" viewBox="0 0 1448.4 176.66">
  <defs>
    <style>
      .cls-1 {
        opacity: .32;
      }

      .cls-2 {
        fill: red;
        opacity: .5;
      }
    </style>
  </defs>
  <g id="Layer_1-2" data-name="Layer_1">
    <g>
      <path class="cls-2" d="M76.05,174.12c1.25,1.31-.48,3.29-1.95,2.24-13.46-9.61-34.66-26.12-50.95-45.12C4.07,118.53-1.71,103.59.42,88.29c-2.1-15.26,3.69-30.17,22.72-42.86C37.77,28.36,56.37,13.3,69.76,3.44c1.52-1.11,2.97-2.16,4.34-3.14,1.47-1.06,3.2.93,1.95,2.24-2.21,2.32-4.31,4.59-6.29,6.82-6.95,7.83-12.49,15.13-16.71,21.92-16.02,25.73-13.15,44.22,3.4,57.05-16.55,12.82-19.41,31.32-3.39,57.05,5.42,8.73,13.02,18.29,22.99,28.74Z"/>
      <path class="cls-1" d="M1395.34,145.38c-7.9,2.73-16.82,5.26-26.86,7.56-93.38,21.4-283.44,22.89-644.28-21.22-360.84,44.11-550.9,42.62-644.28,21.22-10.04-2.3-18.96-4.83-26.86-7.56-16.02-25.73-13.16-44.23,3.39-57.05,6.07,4.7,13.98,8.64,23.47,11.9,73.93,25.37,243.93,9.23,389.12-11.9-152.31-22.18-331.91-38.86-399.28-7.88-5.1,2.35-9.56,4.96-13.31,7.88-16.55-12.83-19.42-31.32-3.4-57.05,5.13-1.77,10.69-3.46,16.71-5.06,1.63-.43,3.3-.86,5-1.27,40.04-9.88,99.04-15.89,183.58-15.75,108.55.17,259.19,10.47,465.86,35.74.84-.1,1.67-.2,2.5-.3C1085.92.83,1275.32,2.36,1368.48,23.72c1.7.39,3.37.78,5,1.19,1.76.43,3.48.86,5.16,1.31,6.02,1.6,11.58,3.29,16.71,5.06,16.02,25.73,13.15,44.22-3.4,57.05-3.75-2.92-8.21-5.53-13.31-7.88-3.15-1.45-6.54-2.79-10.16-4.03-26.37-9.05-64.99-12.82-110.34-12.96-81.01-.26-183.55,11.07-276.28,24.51-.84.12-1.67.24-2.5.36,145.19,21.13,315.19,37.27,389.12,11.9,9.49-3.26,17.4-7.2,23.47-11.9,16.55,12.82,19.41,31.32,3.39,57.05Z"/>
      <path class="cls-2" d="M1425.25,131.24c-16.29,19-37.49,35.51-50.95,45.12-1.47,1.05-3.2-.93-1.95-2.24,9.97-10.45,17.57-20.01,22.99-28.74,16.02-25.73,13.16-44.23-3.39-57.05,16.55-12.83,19.42-31.32,3.4-57.05-5.42-8.72-13.02-18.28-23-28.74-1.25-1.31.48-3.3,1.95-2.24,13.47,9.61,34.68,26.12,50.96,45.13,19.03,12.69,24.82,27.6,22.72,42.86,2.13,15.3-3.65,30.24-22.73,42.95Z"/>
    </g>
  </g>
</svg>